<mxfile host="app.diagrams.net" modified="2021-02-10T02:07:59.894Z" agent="5.0 (Macintosh; Intel Mac OS X 10_15_7) AppleWebKit/537.36 (KHTML, like Gecko) Chrome/88.0.4324.146 Safari/537.36" etag="i43omiBFTjYkBvP0mtSt" version="14.3.0" type="github">
  <diagram id="dkEGtOvr8AqHAAO9sXGl" name="Page-1">
    <mxGraphModel dx="1414" dy="728" grid="1" gridSize="10" guides="1" tooltips="1" connect="1" arrows="1" fold="1" page="1" pageScale="1" pageWidth="850" pageHeight="1100" math="0" shadow="0">
      <root>
        <mxCell id="0" />
        <mxCell id="1" parent="0" />
        <mxCell id="UKrBfvTQUa-AFyekjA3K-16" style="edgeStyle=orthogonalEdgeStyle;rounded=0;orthogonalLoop=1;jettySize=auto;html=1;entryX=0;entryY=0.5;entryDx=0;entryDy=0;fontSize=14;" edge="1" parent="1" source="UKrBfvTQUa-AFyekjA3K-1" target="UKrBfvTQUa-AFyekjA3K-13">
          <mxGeometry relative="1" as="geometry" />
        </mxCell>
        <mxCell id="UKrBfvTQUa-AFyekjA3K-1" value="&lt;font style=&quot;font-size: 14px&quot;&gt;Home&lt;/font&gt;" style="rounded=1;whiteSpace=wrap;html=1;shadow=1;sketch=0;strokeWidth=2;strokeColor=#9999FF;fontColor=#9999FF;glass=0;perimeterSpacing=0;" vertex="1" parent="1">
          <mxGeometry x="41" y="200" width="120" height="60" as="geometry" />
        </mxCell>
        <mxCell id="UKrBfvTQUa-AFyekjA3K-2" value="&lt;font style=&quot;font-size: 14px;&quot;&gt;&lt;span style=&quot;font-size: 14px;&quot;&gt;Movie&lt;/span&gt;&lt;/font&gt;" style="rounded=1;whiteSpace=wrap;html=1;shadow=1;sketch=0;strokeWidth=2;strokeColor=#9999FF;fontSize=14;fontColor=#9999FF;glass=0;perimeterSpacing=0;" vertex="1" parent="1">
          <mxGeometry x="510" y="18" width="120" height="60" as="geometry" />
        </mxCell>
        <mxCell id="UKrBfvTQUa-AFyekjA3K-3" value="&lt;font style=&quot;font-size: 14px;&quot;&gt;&lt;span style=&quot;font-size: 14px;&quot;&gt;Music&lt;/span&gt;&lt;/font&gt;" style="rounded=1;whiteSpace=wrap;html=1;shadow=1;sketch=0;strokeWidth=2;strokeColor=#9999FF;fontSize=14;fontColor=#9999FF;glass=0;perimeterSpacing=0;" vertex="1" parent="1">
          <mxGeometry x="510" y="118" width="120" height="60" as="geometry" />
        </mxCell>
        <mxCell id="UKrBfvTQUa-AFyekjA3K-28" style="edgeStyle=orthogonalEdgeStyle;rounded=0;orthogonalLoop=1;jettySize=auto;html=1;fontSize=14;" edge="1" parent="1" source="UKrBfvTQUa-AFyekjA3K-4" target="UKrBfvTQUa-AFyekjA3K-5">
          <mxGeometry relative="1" as="geometry" />
        </mxCell>
        <mxCell id="UKrBfvTQUa-AFyekjA3K-4" value="&lt;font style=&quot;font-size: 14px;&quot;&gt;&lt;span style=&quot;font-size: 14px;&quot;&gt;News &amp;amp; Information&lt;/span&gt;&lt;/font&gt;" style="rounded=1;whiteSpace=wrap;html=1;shadow=1;sketch=0;strokeWidth=2;strokeColor=#9999FF;fontSize=14;fontColor=#9999FF;glass=0;perimeterSpacing=0;" vertex="1" parent="1">
          <mxGeometry x="520" y="440" width="120" height="60" as="geometry" />
        </mxCell>
        <mxCell id="UKrBfvTQUa-AFyekjA3K-5" value="&lt;font style=&quot;font-size: 14px;&quot;&gt;&lt;span style=&quot;font-size: 14px;&quot;&gt;Article&lt;/span&gt;&lt;/font&gt;" style="rounded=1;whiteSpace=wrap;html=1;shadow=1;sketch=0;strokeWidth=2;strokeColor=#9999FF;fontSize=14;fontColor=#9999FF;glass=0;perimeterSpacing=0;" vertex="1" parent="1">
          <mxGeometry x="680" y="440" width="120" height="60" as="geometry" />
        </mxCell>
        <mxCell id="UKrBfvTQUa-AFyekjA3K-6" value="&lt;font style=&quot;font-size: 14px;&quot;&gt;&lt;span style=&quot;font-size: 14px;&quot;&gt;Alexa Story&lt;/span&gt;&lt;/font&gt;" style="rounded=1;whiteSpace=wrap;html=1;shadow=1;sketch=0;strokeWidth=2;strokeColor=#9999FF;fontSize=14;fontColor=#9999FF;glass=0;perimeterSpacing=0;" vertex="1" parent="1">
          <mxGeometry x="680" y="360" width="120" height="60" as="geometry" />
        </mxCell>
        <mxCell id="UKrBfvTQUa-AFyekjA3K-7" value="&lt;font style=&quot;font-size: 14px;&quot;&gt;&lt;span style=&quot;font-size: 14px;&quot;&gt;Alexa Joke&lt;/span&gt;&lt;/font&gt;" style="rounded=1;whiteSpace=wrap;html=1;shadow=1;sketch=0;strokeWidth=2;strokeColor=#9999FF;fontSize=14;fontColor=#9999FF;glass=0;perimeterSpacing=0;" vertex="1" parent="1">
          <mxGeometry x="680" y="240" width="120" height="60" as="geometry" />
        </mxCell>
        <mxCell id="UKrBfvTQUa-AFyekjA3K-26" style="edgeStyle=orthogonalEdgeStyle;rounded=0;orthogonalLoop=1;jettySize=auto;html=1;entryX=0;entryY=0.5;entryDx=0;entryDy=0;fontSize=14;" edge="1" parent="1" source="UKrBfvTQUa-AFyekjA3K-8" target="UKrBfvTQUa-AFyekjA3K-7">
          <mxGeometry relative="1" as="geometry" />
        </mxCell>
        <mxCell id="UKrBfvTQUa-AFyekjA3K-27" style="edgeStyle=orthogonalEdgeStyle;rounded=0;orthogonalLoop=1;jettySize=auto;html=1;entryX=0;entryY=0.5;entryDx=0;entryDy=0;fontSize=14;" edge="1" parent="1" source="UKrBfvTQUa-AFyekjA3K-8" target="UKrBfvTQUa-AFyekjA3K-6">
          <mxGeometry relative="1" as="geometry" />
        </mxCell>
        <mxCell id="UKrBfvTQUa-AFyekjA3K-8" value="&lt;font style=&quot;font-size: 14px;&quot;&gt;&lt;span style=&quot;font-size: 14px;&quot;&gt;Fun with Alexa&lt;/span&gt;&lt;/font&gt;" style="rounded=1;whiteSpace=wrap;html=1;shadow=1;sketch=0;strokeWidth=2;strokeColor=#9999FF;fontSize=14;fontColor=#9999FF;glass=0;perimeterSpacing=0;" vertex="1" parent="1">
          <mxGeometry x="520" y="350" width="120" height="60" as="geometry" />
        </mxCell>
        <mxCell id="UKrBfvTQUa-AFyekjA3K-9" value="&lt;font style=&quot;font-size: 14px;&quot;&gt;&lt;span style=&quot;font-size: 14px;&quot;&gt;Mood&lt;/span&gt;&lt;/font&gt;" style="rounded=1;whiteSpace=wrap;html=1;shadow=1;sketch=0;strokeWidth=2;strokeColor=#9999FF;fontSize=14;fontColor=#9999FF;glass=0;perimeterSpacing=0;" vertex="1" parent="1">
          <mxGeometry x="510" y="200" width="120" height="60" as="geometry" />
        </mxCell>
        <mxCell id="UKrBfvTQUa-AFyekjA3K-19" style="edgeStyle=orthogonalEdgeStyle;rounded=0;orthogonalLoop=1;jettySize=auto;html=1;entryX=0;entryY=0.5;entryDx=0;entryDy=0;fontSize=14;" edge="1" parent="1" source="UKrBfvTQUa-AFyekjA3K-12" target="UKrBfvTQUa-AFyekjA3K-3">
          <mxGeometry relative="1" as="geometry">
            <Array as="points">
              <mxPoint x="490" y="108" />
              <mxPoint x="490" y="148" />
            </Array>
          </mxGeometry>
        </mxCell>
        <mxCell id="UKrBfvTQUa-AFyekjA3K-35" style="edgeStyle=orthogonalEdgeStyle;rounded=0;orthogonalLoop=1;jettySize=auto;html=1;entryX=0;entryY=0.5;entryDx=0;entryDy=0;fontSize=10;fontColor=#666666;" edge="1" parent="1" source="UKrBfvTQUa-AFyekjA3K-12" target="UKrBfvTQUa-AFyekjA3K-2">
          <mxGeometry relative="1" as="geometry">
            <Array as="points">
              <mxPoint x="490" y="108" />
              <mxPoint x="490" y="48" />
            </Array>
          </mxGeometry>
        </mxCell>
        <mxCell id="UKrBfvTQUa-AFyekjA3K-12" value="&lt;font color=&quot;#666666&quot;&gt;Entertainment&lt;/font&gt;" style="rounded=1;whiteSpace=wrap;html=1;shadow=1;sketch=0;strokeWidth=2;strokeColor=#808080;" vertex="1" parent="1">
          <mxGeometry x="360" y="78" width="120" height="60" as="geometry" />
        </mxCell>
        <mxCell id="UKrBfvTQUa-AFyekjA3K-20" style="edgeStyle=orthogonalEdgeStyle;rounded=0;orthogonalLoop=1;jettySize=auto;html=1;entryX=0;entryY=0.5;entryDx=0;entryDy=0;fontSize=14;" edge="1" parent="1" source="UKrBfvTQUa-AFyekjA3K-13" target="UKrBfvTQUa-AFyekjA3K-15">
          <mxGeometry relative="1" as="geometry" />
        </mxCell>
        <mxCell id="UKrBfvTQUa-AFyekjA3K-21" style="edgeStyle=orthogonalEdgeStyle;rounded=0;orthogonalLoop=1;jettySize=auto;html=1;entryX=0.008;entryY=0.617;entryDx=0;entryDy=0;entryPerimeter=0;fontSize=14;" edge="1" parent="1" source="UKrBfvTQUa-AFyekjA3K-13" target="UKrBfvTQUa-AFyekjA3K-14">
          <mxGeometry relative="1" as="geometry" />
        </mxCell>
        <mxCell id="UKrBfvTQUa-AFyekjA3K-22" style="edgeStyle=orthogonalEdgeStyle;rounded=0;orthogonalLoop=1;jettySize=auto;html=1;entryX=0;entryY=0.5;entryDx=0;entryDy=0;fontSize=14;" edge="1" parent="1" source="UKrBfvTQUa-AFyekjA3K-13" target="UKrBfvTQUa-AFyekjA3K-12">
          <mxGeometry relative="1" as="geometry" />
        </mxCell>
        <mxCell id="UKrBfvTQUa-AFyekjA3K-13" value="&lt;font color=&quot;#666666&quot;&gt;More&lt;/font&gt;" style="rounded=1;whiteSpace=wrap;html=1;shadow=1;sketch=0;strokeWidth=2;strokeColor=#808080;" vertex="1" parent="1">
          <mxGeometry x="200" y="200" width="120" height="60" as="geometry" />
        </mxCell>
        <mxCell id="UKrBfvTQUa-AFyekjA3K-24" style="edgeStyle=orthogonalEdgeStyle;rounded=0;orthogonalLoop=1;jettySize=auto;html=1;entryX=0;entryY=0.5;entryDx=0;entryDy=0;fontSize=14;exitX=0.5;exitY=1;exitDx=0;exitDy=0;" edge="1" parent="1" source="UKrBfvTQUa-AFyekjA3K-14" target="UKrBfvTQUa-AFyekjA3K-8">
          <mxGeometry relative="1" as="geometry" />
        </mxCell>
        <mxCell id="UKrBfvTQUa-AFyekjA3K-25" style="edgeStyle=orthogonalEdgeStyle;rounded=0;orthogonalLoop=1;jettySize=auto;html=1;entryX=0;entryY=0.5;entryDx=0;entryDy=0;fontSize=14;exitX=0.5;exitY=1;exitDx=0;exitDy=0;" edge="1" parent="1" source="UKrBfvTQUa-AFyekjA3K-14" target="UKrBfvTQUa-AFyekjA3K-4">
          <mxGeometry relative="1" as="geometry" />
        </mxCell>
        <mxCell id="UKrBfvTQUa-AFyekjA3K-14" value="&lt;font color=&quot;#666666&quot;&gt;Things to Try&lt;/font&gt;" style="rounded=1;whiteSpace=wrap;html=1;shadow=1;sketch=0;strokeWidth=2;strokeColor=#808080;" vertex="1" parent="1">
          <mxGeometry x="360" y="300" width="120" height="60" as="geometry" />
        </mxCell>
        <mxCell id="UKrBfvTQUa-AFyekjA3K-23" style="edgeStyle=orthogonalEdgeStyle;rounded=0;orthogonalLoop=1;jettySize=auto;html=1;fontSize=14;" edge="1" parent="1" source="UKrBfvTQUa-AFyekjA3K-15" target="UKrBfvTQUa-AFyekjA3K-9">
          <mxGeometry relative="1" as="geometry" />
        </mxCell>
        <mxCell id="UKrBfvTQUa-AFyekjA3K-15" value="&lt;font color=&quot;#666666&quot;&gt;Routine&lt;/font&gt;" style="rounded=1;whiteSpace=wrap;html=1;shadow=1;sketch=0;strokeWidth=2;strokeColor=#808080;" vertex="1" parent="1">
          <mxGeometry x="360" y="200" width="120" height="60" as="geometry" />
        </mxCell>
        <mxCell id="UKrBfvTQUa-AFyekjA3K-30" value="Customize favourite widget on home screen" style="text;strokeColor=none;fillColor=none;align=left;verticalAlign=middle;whiteSpace=wrap;rounded=0;shadow=1;glass=0;sketch=0;fontSize=10;fontColor=#666666;" vertex="1" parent="1">
          <mxGeometry x="41" y="280" width="129" height="20" as="geometry" />
        </mxCell>
        <mxCell id="UKrBfvTQUa-AFyekjA3K-31" value="Save important and favourite content card by category" style="text;strokeColor=none;fillColor=none;align=left;verticalAlign=middle;whiteSpace=wrap;rounded=0;shadow=1;glass=0;sketch=0;fontSize=10;fontColor=#666666;" vertex="1" parent="1">
          <mxGeometry x="520" y="520" width="129" height="20" as="geometry" />
        </mxCell>
        <mxCell id="UKrBfvTQUa-AFyekjA3K-32" value="Play mindful music and adjust light, temperature and air depends on user&#39;s mood" style="text;strokeColor=none;fillColor=none;align=left;verticalAlign=middle;whiteSpace=wrap;rounded=0;shadow=1;glass=0;sketch=0;fontSize=10;fontColor=#666666;" vertex="1" parent="1">
          <mxGeometry x="510" y="280" width="140" height="20" as="geometry" />
        </mxCell>
        <mxCell id="UKrBfvTQUa-AFyekjA3K-33" value="3D animated character with expressions displayed on screen will tell joke" style="text;strokeColor=none;fillColor=none;align=left;verticalAlign=middle;whiteSpace=wrap;rounded=0;shadow=1;glass=0;sketch=0;fontSize=10;fontColor=#666666;html=1;" vertex="1" parent="1">
          <mxGeometry x="680" y="320" width="140" height="20" as="geometry" />
        </mxCell>
        <mxCell id="UKrBfvTQUa-AFyekjA3K-34" value="Show movie &amp;amp; music suggestion based on users mood" style="text;strokeColor=none;fillColor=none;align=left;verticalAlign=middle;whiteSpace=wrap;rounded=0;shadow=1;glass=0;sketch=0;fontSize=10;fontColor=#666666;html=1;" vertex="1" parent="1">
          <mxGeometry x="510" y="90" width="150" height="20" as="geometry" />
        </mxCell>
      </root>
    </mxGraphModel>
  </diagram>
</mxfile>
